#!OML:ASF C:\Vicon Data\Big\jianyuan-13\jianyuan\Session 1\Capture.male.ASF
:FULLY-SPECIFIED
:DEGREES
126
root -7.419694 17.283007 -15.122181 8.037707 9.234512 0.565180
lowerback -13.553209 2.709744 -1.144022 
upperback 1.993106 3.916385 -1.071091 
thorax 9.773057 1.848663 0.343419 
lowerneck -0.972851 -3.487743 1.670615 
upperneck 14.578388 -4.653969 -1.058777 
head 4.963643 -2.239703 -0.866865 
rclavicle 0.000000 0.000000 
rhumerus -37.077318 -13.537636 -85.100499 
rradius 41.266658 
rwrist 20.964453 
rhand -18.627005 -18.919838 
rfingers 0.000000 
rthumb 7.665212 -48.760968 
lclavicle 0.000000 0.000000 
lhumerus -40.012862 30.853129 67.230973 
lradius 27.995846 
lwrist -52.875148 
lhand -18.557243 -0.796571 
lfingers 0.000000 
lthumb 7.732505 29.041996 
rfemur 1.513877 7.110948 25.056407 
rtibia 24.456394 
rfoot -28.758755 -6.761142 
rtoes -26.983769 
lfemur -32.435631 -4.478149 -15.515099 
ltibia 19.510795 
lfoot -4.987437 5.561579 
ltoes -35.863234 
127
root -7.401784 17.280010 -15.084467 8.118503 9.287503 0.668628
lowerback -13.577009 2.673323 -1.264226 
upperback 1.991053 3.894389 -1.131183 
thorax 9.781170 1.833190 0.342710 
lowerneck -0.999086 -3.476222 1.712092 
upperneck 14.551353 -4.641595 -1.056059 
head 4.958037 -2.231547 -0.872814 
rclavicle 0.000000 0.000000 
rhumerus -36.981351 -13.671486 -85.127086 
rradius 41.178369 
rwrist 21.178472 
rhand -18.639375 -18.733770 
rfingers 0.000000 
rthumb 7.653234 -48.575307 
lclavicle 0.000000 0.000000 
lhumerus -39.988709 30.799460 67.266557 
lradius 27.968571 
lwrist -52.619090 
lhand -18.580863 -0.464040 
lfingers 0.000000 
lthumb 7.709732 29.375403 
rfemur 1.539040 7.033520 24.917560 
rtibia 24.561172 
rfoot -28.685024 -6.812914 
rtoes -27.168234 
lfemur -32.378410 -4.429881 -15.712615 
ltibia 19.381974 
lfoot -4.125424 5.890218 
ltoes -35.008984 
128
root -7.382328 17.277293 -15.047305 8.185534 9.369316 0.766996
lowerback -13.575447 2.629170 -1.350671 
upperback 1.976519 3.856171 -1.198155 
thorax 9.763835 1.812519 0.310591 
lowerneck -0.934346 -3.474510 1.793554 
upperneck 14.480190 -4.637114 -1.094922 
head 4.915255 -2.227767 -0.896904 
rclavicle 0.000000 0.000000 
rhumerus -36.940451 -13.764652 -85.165903 
rradius 41.163280 
rwrist 21.150011 
rhand -18.595969 -18.587888 
rfingers 0.000000 
rthumb 7.695101 -48.427881 
lclavicle 0.000000 0.000000 
lhumerus -40.079044 30.885466 67.088990 
lradius 27.844422 
lwrist -53.009204 
lhand -18.754729 -0.418763 
lfingers 0.000000 
lthumb 7.541891 29.426783 
rfemur 1.586997 7.025764 24.821288 
rtibia 24.628098 
rfoot -28.528712 -7.057429 
rtoes -27.723343 
lfemur -32.343392 -4.381028 -15.911339 
ltibia 19.318203 
lfoot -3.298041 6.190632 
ltoes -34.862596 
129
root -7.363126 17.274713 -15.009588 8.232995 9.456860 0.856813
lowerback -13.590469 2.583612 -1.492679 
upperback 2.005645 3.821316 -1.204501 
thorax 9.796091 1.787441 0.377332 
lowerneck -0.979166 -3.486977 1.812804 
upperneck 14.434647 -4.646056 -1.171282 
head 4.904520 -2.235427 -0.926869 
rclavicle 0.000000 0.000000 
rhumerus -36.849727 -13.799507 -85.155131 
rradius 41.132125 
rwrist 21.003358 
rhand -18.689048 -18.640655 
rfingers 0.000000 
rthumb 7.605251 -48.483944 
lclavicle 0.000000 0.000000 
lhumerus -40.122031 31.009754 67.058071 
lradius 27.770254 
lwrist -53.323452 
lhand -18.899018 -0.333920 
lfingers 0.000000 
lthumb 7.402591 29.516597 
rfemur 1.643765 6.871393 24.729296 
rtibia 24.692658 
rfoot -28.317882 -7.402344 
rtoes -29.136039 
lfemur -32.297963 -4.326901 -16.094172 
ltibia 19.298009 
lfoot -2.514316 6.443975 
ltoes -34.167169 
130
root -7.344305 17.272300 -14.972336 8.236089 9.556465 0.901981
lowerback -13.562112 2.536467 -1.582193 
upperback 2.051684 3.774279 -1.205191 
thorax 9.825035 1.759424 0.416418 
lowerneck -1.052446 -3.497144 1.823474 
upperneck 14.389860 -4.655949 -1.218193 
head 4.900818 -2.242515 -0.946121 
rclavicle 0.000000 0.000000 
rhumerus -36.743513 -13.787055 -85.203682 
rradius 41.122095 
rwrist 20.918852 
rhand -18.867774 -18.925890 
rfingers 0.000000 
rthumb 7.432735 -48.775339 
lclavicle 0.000000 0.000000 
lhumerus -40.157039 31.233852 66.990881 
lradius 27.754851 
lwrist -53.441486 
lhand -18.821735 -0.342608 
lfingers 0.000000 
lthumb 7.477176 29.505228 
rfemur 1.737406 6.594145 24.660257 
rtibia 24.763339 
rfoot -28.132922 -7.620667 
rtoes -30.460867 
lfemur -32.235110 -4.322239 -16.212789 
ltibia 19.337538 
lfoot -1.784812 6.715154 
ltoes -33.402767 
131
root -7.325045 17.271602 -14.935037 8.221357 9.672065 0.898551
lowerback -13.504392 2.493847 -1.586768 
upperback 2.080020 3.718267 -1.212699 
thorax 9.823653 1.732682 0.396775 
lowerneck -1.044526 -3.499132 1.827695 
upperneck 14.310033 -4.656991 -1.229653 
head 4.868895 -2.244154 -0.948899 
rclavicle 0.000000 0.000000 
rhumerus -36.680454 -13.851356 -85.231561 
rradius 41.126866 
rwrist 21.054678 
rhand -18.891720 -19.081938 
rfingers 0.000000 
rthumb 7.409657 -48.932193 
lclavicle 0.000000 0.000000 
lhumerus -40.183898 31.420549 66.914302 
lradius 27.784949 
lwrist -53.136739 
lhand -18.415515 -0.401915 
lfingers 0.000000 
lthumb 7.869270 29.431392 
rfemur 1.854593 6.342981 24.623645 
rtibia 24.833662 
rfoot -27.994393 -7.651076 
rtoes -31.039632 
lfemur -32.195027 -4.328437 -16.290487 
ltibia 19.451248 
lfoot -1.065805 6.976281 
ltoes -33.123540 
132
root -7.305211 17.272067 -14.897002 8.259290 9.739844 0.854544
lowerback -13.518548 2.477532 -1.575341 
upperback 2.086650 3.692316 -1.184308 
thorax 9.838139 1.719667 0.416101 
lowerneck -0.992760 -3.506453 1.791449 
upperneck 14.211949 -4.658107 -1.270520 
head 4.821561 -2.249523 -0.952979 
rclavicle 0.000000 0.000000 
rhumerus -36.641054 -13.925155 -85.157563 
rradius 41.122716 
rwrist 21.160532 
rhand -18.806717 -18.974535 
rfingers 0.000000 
rthumb 7.491732 -48.821901 
lclavicle 0.000000 0.000000 
lhumerus -40.176554 31.499719 66.971053 
lradius 27.800010 
lwrist -52.640706 
lhand -17.997108 -0.325204 
lfingers 0.000000 
lthumb 8.273137 29.492797 
rfemur 1.917856 6.199302 24.609998 
rtibia 24.902464 
rfoot -27.839300 -7.612862 
rtoes -31.263725 
lfemur -32.237569 -4.246064 -16.350922 
ltibia 19.622034 
lfoot -0.420884 7.132997 
ltoes -32.938482 
133
root -7.284499 17.270403 -14.860155 8.341329 9.752621 0.787873
lowerback -13.577452 2.480932 -1.564214 
upperback 2.071782 3.691611 -1.139279 
thorax 9.853412 1.718102 0.460481 
lowerneck -0.917356 -3.525672 1.777977 
upperneck 14.109692 -4.670027 -1.359922 
head 4.765991 -2.261397 -0.977154 
rclavicle 0.000000 0.000000 
rhumerus -36.637719 -13.859741 -85.102827 
rradius 41.175425 
rwrist 20.971613 
rhand -18.830056 -18.923000 
rfingers 0.000000 
rthumb 7.469156 -48.771100 
lclavicle 0.000000 0.000000 
lhumerus -40.235609 31.669121 66.948559 
lradius 27.695628 
lwrist -52.810638 
lhand -18.021546 -0.262138 
lfingers 0.000000 
lthumb 8.249573 29.556707 
rfemur 1.928262 6.107931 24.603558 
rtibia 24.977081 
rfoot -27.661349 -7.558853 
rtoes -31.456952 
lfemur -32.351190 -4.109793 -16.394091 
ltibia 19.827833 
lfoot -0.016842 7.145438 
ltoes -32.612292 
134
root -7.262183 17.266449 -14.825358 8.352702 9.864246 0.776491
lowerback -13.521671 2.451048 -1.573077 
upperback 2.061851 3.650255 -1.125975 
thorax 9.809074 1.698192 0.467864 
lowerneck -0.801436 -3.543583 1.824454 
upperneck 13.992020 -4.684544 -1.435111 
head 4.695590 -2.270803 -1.005554 
rclavicle 0.000000 0.000000 
rhumerus -36.705483 -13.897405 -85.065664 
rradius 41.251882 
rwrist 20.947053 
rhand -18.856343 -18.950899 
rfingers 0.000000 
rthumb 7.443805 -48.799904 
lclavicle 0.000000 0.000000 
lhumerus -40.387837 31.902008 66.775335 
lradius 27.530415 
lwrist -53.580415 
lhand -18.370038 -0.255359 
lfingers 0.000000 
lthumb 7.913211 29.576419 
rfemur 2.019883 5.902534 24.555582 
rtibia 25.062309 
rfoot -27.521231 -7.488685 
rtoes -31.647729 
lfemur -32.420993 -4.083198 -16.502719 
ltibia 20.068969 
lfoot 0.116161 7.025459 
ltoes -32.321289 
135
root -7.239759 17.265578 -14.789783 8.346450 9.953766 0.812526
lowerback -13.486890 2.426823 -1.622879 
upperback 2.102520 3.626258 -1.121811 
thorax 9.830631 1.683381 0.494480 
lowerneck -0.801336 -3.574288 1.844741 
upperneck 13.879778 -4.721747 -1.476786 
head 4.651633 -2.291026 -1.022164 
rclavicle 0.000000 0.000000 
rhumerus -36.597233 -13.858653 -85.071505 
rradius 41.179754 
rwrist 20.768788 
rhand -19.017931 -19.161711 
rfingers 0.000000 
rthumb 7.287828 -49.016185 
lclavicle 0.000000 0.000000 
lhumerus -40.543113 32.320154 66.518250 
lradius 27.330415 
lwrist -54.847855 
lhand -18.891643 -0.372343 
lfingers 0.000000 
lthumb 7.409727 29.477887 
rfemur 2.121273 5.683838 24.449719 
rtibia 25.151958 
rfoot -27.314377 -7.497110 
rtoes -32.121058 
lfemur -32.458930 -4.118118 -16.652163 
ltibia 20.337187 
lfoot -0.008302 6.880618 
ltoes -31.752273 
136
root -7.219823 17.268350 -14.754055 8.310392 10.084126 0.762967
lowerback -13.398191 2.405015 -1.549327 
upperback 2.112070 3.584144 -1.135965 
thorax 9.795688 1.668574 0.425097 
lowerneck -0.708535 -3.615910 1.864913 
upperneck 13.755313 -4.777140 -1.473111 
head 4.585663 -2.318101 -1.021243 
rclavicle 0.000000 0.000000 
rhumerus -36.644355 -13.888785 -85.085811 
rradius 41.280613 
rwrist 20.927409 
rhand -18.782235 -19.208027 
rfingers 0.000000 
rthumb 7.515361 -49.054544 
lclavicle 0.000000 0.000000 
lhumerus -40.508242 32.265522 66.541230 
lradius 27.284992 
lwrist -54.567095 
lhand -18.840140 -0.321613 
lfingers 0.000000 
lthumb 7.459441 29.526885 
rfemur 2.183935 5.404956 24.425667 
rtibia 25.316570 
rfoot -27.112122 -7.388973 
rtoes -32.455288 
lfemur -32.467067 -4.007441 -16.770994 
ltibia 20.573509 
lfoot 0.060432 6.615863 
ltoes -31.567543 
137
root -7.199449 17.271871 -14.716556 8.282976 10.177055 0.741455
lowerback -13.329108 2.396254 -1.559735 
upperback 2.123652 3.571158 -1.118823 
thorax 9.766648 1.661769 0.443614 
lowerneck -0.588980 -3.690697 1.853514 
upperneck 13.621017 -4.869564 -1.514154 
head 4.509804 -2.367115 -1.030148 
rclavicle 0.000000 0.000000 
rhumerus -36.692844 -13.965759 -85.051852 
rradius 41.405096 
rwrist 20.961164 
rhand -18.657790 -19.169837 
rfingers 0.000000 
rthumb 7.635471 -49.012038 
lclavicle 0.000000 0.000000 
lhumerus -40.599886 32.535145 66.382433 
lradius 27.218173 
lwrist -54.890358 
lhand -18.671853 -0.430790 
lfingers 0.000000 
lthumb 7.621875 29.411897 
rfemur 2.244939 5.364226 24.403136 
rtibia 25.536920 
rfoot -27.010073 -7.310361 
rtoes -32.393721 
lfemur -32.451852 -3.797315 -16.951563 
ltibia 20.782819 
lfoot 0.289896 6.354455 
ltoes -31.383981 
